<?xml version="1.0" encoding="utf-8"?>
<!-- Generator: Adobe Illustrator 19.0.0, SVG Export Plug-In . SVG Version: 6.00 Build 0)  -->
<svg version="1.1" id="Layer_1" xmlns="http://www.w3.org/2000/svg" xmlns:xlink="http://www.w3.org/1999/xlink" x="0px" y="0px"
	 width="159px" height="185px" viewBox="0 0 159 185" style="enable-background:new 0 0 159 185;" xml:space="preserve">
<style type="text/css">
	.st0{fill:#71467C;}
	.st1{fill:#C4A3CC;}
	.st2{fill:#906A99;}
	.st3{fill:#FFFFFF;}
	.st4{fill:#231F20;}
</style>
<g id="XMLID_4384_">
	<g id="XMLID_4429_">
		<rect id="XMLID_4438_" x="69.4" y="15.6" class="st0" width="20.2" height="15.1"/>
		<g id="XMLID_4434_">
			<rect id="XMLID_4437_" x="59.8" y="5.7" class="st1" width="13.6" height="11.8"/>
			<rect id="XMLID_4436_" x="72.7" y="5.7" class="st2" width="13.6" height="11.8"/>
			<rect id="XMLID_4435_" x="85.7" y="5.7" class="st0" width="13.6" height="11.8"/>
		</g>
		<g id="XMLID_4430_">
			<path id="XMLID_4433_" class="st1" d="M73.3,5.9H59.8V4.7c0-2.6,2.1-4.7,4.7-4.7h8.8V5.9z"/>
			<rect id="XMLID_4432_" x="72.7" class="st2" width="13.6" height="5.9"/>
			<path id="XMLID_4431_" class="st0" d="M99.3,5.9H85.7V0h8.8c2.6,0,4.7,2.1,4.7,4.7V5.9z"/>
		</g>
	</g>
	<g id="XMLID_4424_">
		
			<rect id="XMLID_4428_" x="115" y="27.8" transform="matrix(0.8514 0.5245 -0.5245 0.8514 36.0706 -58.5485)" class="st0" width="12.8" height="13.1"/>
		<g id="XMLID_4425_">
			<path id="XMLID_4427_" class="st2" d="M129.4,21.7l-5.8-3.6c-1.6-1-3.8-0.5-4.8,1.1l-0.3,0.5l0,0l-4.4,7.2l8.8,5.4l4.4-7.2l0,0
				L129.4,21.7z"/>
			<path id="XMLID_4426_" class="st0" d="M134.9,25.1l-5.8-3.6l-2.1,3.5l0,0l-4.4,7.2l8.8,5.4l4.4-7.2l0,0l0.3-0.5
				C137,28.2,136.5,26.1,134.9,25.1z"/>
		</g>
	</g>
	<g id="XMLID_4385_">
		<g id="XMLID_4420_">
			<circle id="XMLID_4423_" class="st2" cx="79.5" cy="105.5" r="79.5"/>
			<circle id="XMLID_4422_" class="st1" cx="79.5" cy="105.5" r="65.3"/>
			<circle id="XMLID_4421_" class="st0" cx="79.5" cy="105.5" r="63"/>
		</g>
		<g id="XMLID_4386_">
			<path id="XMLID_4419_" class="st3" d="M122.6,125.2H36.5c-1.9,0-3.4-1.5-3.4-3.4V89.2c0-1.9,1.5-3.4,3.4-3.4h86.1
				c1.9,0,3.4,1.5,3.4,3.4v32.6C126,123.7,124.5,125.2,122.6,125.2z"/>
			<g id="XMLID_4387_">
				<path id="XMLID_4412_" class="st4" d="M49,98.7v5.1l-1.6,1.6l-0.5-0.5v-7L49,98.7z M46.9,113.5v-7l0.5-0.5l1.6,1.6v5.1
					L46.9,113.5z M56.3,115.4h-8.1c-0.7-0.2-1.2-0.6-1.3-1.3l2.2-0.8h6.5L56.3,115.4z M55.5,98.1h-6.4l-2.2-0.8
					c0.2-0.7,0.6-1.2,1.3-1.3h8.1L55.5,98.1z M56.1,103.8v-5.7l0.8-2.2c0.7,0.2,1.2,0.6,1.3,1.3v7.6l-0.5,0.5L56.1,103.8z M57.7,106
					l0.5,0.5v7.6c-0.2,0.7-0.6,1.2-1.3,1.3l-0.8-2.2v-5.7L57.7,106z"/>
				<path id="XMLID_4405_" class="st4" d="M62.5,98.7v5.1l-1.6,1.6l-0.5-0.5v-7L62.5,98.7z M60.4,113.5v-7l0.5-0.5l1.6,1.6v5.1
					L60.4,113.5z M69.8,115.4h-8.1c-0.7-0.2-1.2-0.6-1.3-1.3l2.2-0.8H69L69.8,115.4z M69,98.1h-6.4l-2.2-0.8
					c0.2-0.7,0.6-1.2,1.3-1.3h8.1L69,98.1z M69.5,103.8v-5.7l0.8-2.2c0.7,0.2,1.2,0.6,1.3,1.3v7.6l-0.5,0.5L69.5,103.8z M71.2,106
					l0.5,0.5v7.6c-0.2,0.7-0.6,1.2-1.3,1.3l-0.8-2.2v-5.7L71.2,106z"/>
				<path id="XMLID_4402_" class="st4" d="M80.6,102.5h-2.2v-2.2h2.2V102.5z M80.6,115.4h-2.2v-2.2h2.2V115.4z"/>
				<path id="XMLID_4395_" class="st4" d="M89.5,98.7v5.1l-1.6,1.6l-0.5-0.5v-7L89.5,98.7z M87.3,113.5v-7l0.5-0.5l1.6,1.6v5.1
					L87.3,113.5z M96.8,115.4h-8.1c-0.7-0.2-1.2-0.6-1.3-1.3l2.2-0.8H96L96.8,115.4z M96,98.1h-6.4l-2.2-0.8
					c0.2-0.7,0.6-1.2,1.3-1.3h8.1L96,98.1z M96.5,103.8v-5.7l0.8-2.2c0.7,0.2,1.2,0.6,1.3,1.3v7.6l-0.5,0.5L96.5,103.8z M98.1,106
					l0.5,0.5v7.6c-0.2,0.7-0.6,1.2-1.3,1.3l-0.8-2.2v-5.7L98.1,106z"/>
				<path id="XMLID_4388_" class="st4" d="M103.1,98.7v5.1l-1.6,1.6l-0.5-0.5v-7L103.1,98.7z M100.9,113.5v-7l0.5-0.5l1.6,1.6v5.1
					L100.9,113.5z M110.4,115.4h-8.1c-0.7-0.2-1.2-0.6-1.3-1.3l2.2-0.8h6.5L110.4,115.4z M109.6,98.1h-6.4l-2.2-0.8
					c0.2-0.7,0.6-1.2,1.3-1.3h8.1L109.6,98.1z M110.1,103.8v-5.7l0.8-2.2c0.7,0.2,1.2,0.6,1.3,1.3v7.6l-0.5,0.5L110.1,103.8z
					 M111.7,106l0.5,0.5v7.6c-0.2,0.7-0.6,1.2-1.3,1.3l-0.8-2.2v-5.7L111.7,106z"/>
			</g>
		</g>
	</g>
</g>
</svg>
