<?xml version="1.0" encoding="utf-8"?>
<!-- Generator: Adobe Illustrator 19.0.0, SVG Export Plug-In . SVG Version: 6.00 Build 0)  -->
<svg version="1.1" id="Layer_1" xmlns="http://www.w3.org/2000/svg" xmlns:xlink="http://www.w3.org/1999/xlink" x="0px" y="0px"
	 width="185px" height="185px" viewBox="0 0 185 185" style="enable-background:new 0 0 185 185;" xml:space="preserve">
<style type="text/css">
	.st0{fill:#72497C;}
	.st1{fill:#F3EFF4;}
	.st2{fill:#B78FC1;}
</style>
<g id="XMLID_3860_">
	<path id="XMLID_2679_" class="st0" d="M168.2,185H16.8C7.5,185,0,177.5,0,168.2V16.8C0,7.5,7.5,0,16.8,0h151.4
		c9.3,0,16.8,7.5,16.8,16.8v151.4C185,177.5,177.5,185,168.2,185z"/>
	<g id="XMLID_2899_">
		<g id="XMLID_2802_">
			<g id="XMLID_2765_">
				<g id="XMLID_2757_">
					<path id="XMLID_2758_" class="st1" d="M140.7,47.2H81.8c-2.1,0-3.7-1.7-3.7-3.7v0c0-2.1,1.7-3.7,3.7-3.7h58.9
						c2.1,0,3.7,1.7,3.7,3.7v0C144.4,45.5,142.7,47.2,140.7,47.2z"/>
				</g>
				<g id="XMLID_2801_">
					<path id="XMLID_2889_" class="st1" d="M122.8,60.4h-41c-2.1,0-3.7-1.7-3.7-3.7v0c0-2.1,1.7-3.7,3.7-3.7h41
						c2.1,0,3.7,1.7,3.7,3.7v0C126.5,58.7,124.8,60.4,122.8,60.4z"/>
				</g>
			</g>
			<g id="XMLID_2764_">
				<path id="XMLID_2676_" class="st2" d="M67.6,66H44.5c-2.1,0-3.9-1.7-3.9-3.9V38c0-2.1,1.7-3.9,3.9-3.9h23.1
					c2.1,0,3.9,1.7,3.9,3.9v24.2C71.4,64.3,69.7,66,67.6,66z"/>
				<g id="XMLID_2773_">
					<path id="XMLID_2782_" class="st1" d="M55.3,58.3c-0.9,0.9-2.4,0.9-3.3-0.1L46.7,52c-1.2-1.4-1-3.5,0.4-4.7
						c1.4-1.2,3.5-1,4.7,0.4l2.1,2.5l6.8-6.8c1.3-1.3,3.4-1.3,4.7,0c1.3,1.3,1.3,3.4,0,4.7L55.3,58.3z"/>
				</g>
			</g>
		</g>
		<g id="XMLID_3068_">
			<g id="XMLID_3330_">
				<g id="XMLID_3341_">
					<path id="XMLID_3347_" class="st1" d="M118.3,132H81.8c-2.1,0-3.7-1.7-3.7-3.7l0,0c0-2.1,1.7-3.7,3.7-3.7h36.5
						c2.1,0,3.7,1.7,3.7,3.7l0,0C122,130.4,120.3,132,118.3,132z"/>
				</g>
				<g id="XMLID_3331_">
					<path id="XMLID_3338_" class="st1" d="M127.2,145.3H81.8c-2.1,0-3.7-1.7-3.7-3.7l0,0c0-2.1,1.7-3.7,3.7-3.7h45.5
						c2.1,0,3.7,1.7,3.7,3.7l0,0C131,143.6,129.3,145.3,127.2,145.3z"/>
				</g>
			</g>
			<g id="XMLID_3069_">
				<path id="XMLID_3121_" class="st2" d="M67.6,150.9H44.5c-2.1,0-3.9-1.7-3.9-3.9v-24.2c0-2.1,1.7-3.9,3.9-3.9h23.1
					c2.1,0,3.9,1.7,3.9,3.9V147C71.4,149.2,69.7,150.9,67.6,150.9z"/>
				<g id="XMLID_3119_">
					<path id="XMLID_3120_" class="st1" d="M55.3,143.1c-0.9,0.9-2.4,0.9-3.3-0.1l-5.3-6.1c-1.2-1.4-1-3.5,0.4-4.7
						c1.4-1.2,3.5-1,4.7,0.4l2.1,2.5l6.8-6.8c1.3-1.3,3.4-1.3,4.7,0c1.3,1.3,1.3,3.4,0,4.7L55.3,143.1z"/>
				</g>
			</g>
		</g>
		<g id="XMLID_3065_">
			<g id="XMLID_3071_">
				<g id="XMLID_3105_">
					<path id="XMLID_3118_" class="st1" d="M122.8,89.7h-41C79.7,89.7,78,88,78,86v0c0-2.1,1.7-3.7,3.7-3.7h41
						c2.1,0,3.7,1.7,3.7,3.7v0C126.5,88,124.8,89.7,122.8,89.7z"/>
				</g>
				<g id="XMLID_3072_">
					<path id="XMLID_3073_" class="st1" d="M131.7,102.9h-50c-2.1,0-3.7-1.7-3.7-3.7v0c0-2.1,1.7-3.7,3.7-3.7h50
						c2.1,0,3.7,1.7,3.7,3.7v0C135.4,101.3,133.8,102.9,131.7,102.9z"/>
				</g>
			</g>
			<g id="XMLID_3067_">
				<path id="XMLID_3070_" class="st2" d="M67.6,108.6H44.5c-2.1,0-3.9-1.7-3.9-3.9V80.5c0-2.1,1.7-3.9,3.9-3.9h23.1
					c2.1,0,3.9,1.7,3.9,3.9v24.2C71.4,106.8,69.7,108.6,67.6,108.6z"/>
			</g>
		</g>
	</g>
</g>
</svg>
