<?xml version="1.0" encoding="utf-8"?>
<!-- Generator: Adobe Illustrator 19.0.0, SVG Export Plug-In . SVG Version: 6.00 Build 0)  -->
<svg version="1.1" id="Layer_1" xmlns="http://www.w3.org/2000/svg" xmlns:xlink="http://www.w3.org/1999/xlink" x="0px" y="0px"
	 width="138.2px" height="200.6px" viewBox="0 0 138.2 200.6" style="enable-background:new 0 0 138.2 200.6;" xml:space="preserve"
	>
<style type="text/css">
	.st0{fill:#BA90C4;}
	.st1{fill:#EFE9F2;}
	.st2{fill:#653570;}
	.st3{fill:#C4A3CC;}
	.st4{fill:#71467C;}
	.st5{fill:#F3EFF4;}
</style>
<g id="XMLID_1_">
	<g id="XMLID_2176_">
		<g id="XMLID_2642_">
			<g id="XMLID_2647_">
				<path id="XMLID_21_" class="st0" d="M88.5,200.5l-25.7-8.7c-0.8-0.3-1.4-1-1.4-1.9v-37.3c0-0.6,0.5-1,1-1h27.8c0.6,0,1,0.5,1,1
					v46C91.2,200,89.8,200.9,88.5,200.5z"/>
			</g>
			<g id="XMLID_2643_">
				<path id="XMLID_22_" class="st1" d="M84.1,119.9c-3.1,0-6.6,0-7.8,0s-4.7,0-7.8,0H32.1c-0.8,0-1.3,1.1-0.8,1.8l27.4,37
					c0.2,0.3,0.5,0.4,0.8,0.4h9.1c3.1,0,6.6,0,7.8,0s4.7,0,7.8,0h9.1c0.3,0,0.6-0.2,0.8-0.4l27.4-37c0.5-0.7,0.1-1.8-0.8-1.8H84.1z"
					/>
			</g>
		</g>
		<g id="XMLID_2626_">
			<g id="XMLID_2283_">
				<path id="XMLID_2287_" class="st0" d="M108,85.2l-4.3,8c-0.1,0.2-0.3,0.4-0.5,0.5l1.2,7.8c0.3,2.2,2.4,3.7,4.6,3.4l3.8-0.6
					c2.2-0.3,3.7-2.4,3.4-4.6l-1.2-7.9c-0.2-0.1-0.3-0.1-0.5-0.3L108,85.2z"/>
				<path id="XMLID_2482_" class="st0" d="M107.4,81.1c0.4-0.1,0.9-0.1,1.2,0.3l5.7,5.5l-0.9-5.6c-0.3-2.2-2.4-3.7-4.6-3.4l-3.8,0.6
					c-2.2,0.3-3.7,2.4-3.4,4.6l0.9,5.7l3.8-7.1C106.5,81.3,106.9,81.1,107.4,81.1z"/>
				<path id="XMLID_2610_" class="st1" d="M108.6,81.4c-0.3-0.3-0.8-0.4-1.2-0.3c-0.4,0-0.8,0.2-1.1,0.6l-3.8,7.1l0.8,4.8
					c0.2-0.1,0.3-0.3,0.5-0.5l4.3-8l6.6,6.3c0.1,0.1,0.3,0.2,0.5,0.3l-0.8-4.9L108.6,81.4z"/>
			</g>
			<g id="XMLID_2285_">
				<path id="XMLID_2575_" class="st0" d="M131.4,65.9l-7,5.9c-0.2,0.1-0.4,0.2-0.6,0.3l-1.7,7.7c-0.5,2.2,0.9,4.3,3.1,4.8l3.7,0.8
					c2.2,0.5,4.3-0.9,4.8-3.1l1.8-7.8c-0.1-0.1-0.3-0.2-0.3-0.4L131.4,65.9z"/>
				<path id="XMLID_2572_" class="st0" d="M132.3,61.8c0.4,0,0.8,0.3,1,0.7l3.3,7.2l1.2-5.5c0.5-2.2-0.9-4.3-3.1-4.8l-3.7-0.8
					c-2.2-0.5-4.3,0.9-4.8,3.1l-1.3,5.6l6.2-5.2C131.4,61.7,131.9,61.7,132.3,61.8z"/>
				<path id="XMLID_2286_" class="st1" d="M133.3,62.5c-0.2-0.4-0.6-0.7-1-0.7c-0.4-0.2-0.9-0.1-1.2,0.2l-6.2,5.2l-1.1,4.8
					c0.2,0,0.4-0.1,0.6-0.3l7-5.9l3.8,8.3c0.1,0.2,0.2,0.3,0.3,0.4l1.1-4.9L133.3,62.5z"/>
			</g>
		</g>
		<g id="XMLID_2677_">
			<path id="XMLID_2761_" class="st1" d="M42.8,84.7c-1.9-6.4-11-15.4-18.3-13.2c-7.3,2.1-10.2,14.6-8.3,21L42.8,84.7z"/>
			<circle id="XMLID_2760_" class="st0" cx="22.9" cy="65.7" r="5.9"/>
			<path id="XMLID_2763_" class="st0" d="M46.2,95.3l-27,7.9c-2.2,0.7-4.6-0.6-5.2-2.9L13,97.2c-0.7-2.2,0.6-4.6,2.9-5.2l27-7.9
				c2.2-0.7,4.6,0.6,5.2,2.9l0.9,3.1C49.7,92.3,48.4,94.7,46.2,95.3z"/>
			<g id="XMLID_2759_">
				<path id="XMLID_2775_" class="st2" d="M19,94.1c-0.6,0.2-0.9,0.8-0.8,1.4l1,3.5c0.2,0.6,0.8,0.9,1.4,0.8
					c0.6-0.2,0.9-0.8,0.8-1.4l-1-3.5C20.2,94.3,19.6,94,19,94.1z"/>
				<path id="XMLID_2776_" class="st2" d="M24.7,92.5c-0.6,0.2-0.9,0.8-0.8,1.4l1,3.5c0.2,0.6,0.8,0.9,1.4,0.8
					c0.6-0.2,0.9-0.8,0.8-1.4l-1-3.5C25.9,92.6,25.3,92.3,24.7,92.5z"/>
				<path id="XMLID_2777_" class="st2" d="M30.5,90.8c-0.6,0.2-0.9,0.8-0.8,1.4l1,3.5c0.2,0.6,0.8,0.9,1.4,0.8
					c0.6-0.2,0.9-0.8,0.8-1.4l-1-3.5C31.7,91,31,90.6,30.5,90.8z"/>
				<path id="XMLID_3092_" class="st2" d="M36.2,89.1c-0.6,0.2-0.9,0.8-0.8,1.4l1,3.5c0.2,0.6,0.8,0.9,1.4,0.8
					c0.6-0.2,0.9-0.8,0.8-1.4l-1-3.5C37.4,89.3,36.8,88.9,36.2,89.1z"/>
				<path id="XMLID_3095_" class="st2" d="M41.9,87.4c-0.6,0.2-0.9,0.8-0.8,1.4l1,3.5c0.2,0.6,0.8,0.9,1.4,0.8
					c0.6-0.2,0.9-0.8,0.8-1.4l-1-3.5C43.1,87.6,42.5,87.3,41.9,87.4z"/>
			</g>
		</g>
		<g id="XMLID_2678_">
			<g id="XMLID_2771_">
				<g id="XMLID_3389_">
					<g id="XMLID_3444_">
						<g id="XMLID_3445_">
							<path id="XMLID_13_" class="st0" d="M49.2,23.5c-0.7,0.2-1.5-0.2-1.8-0.9L42.9,9.2c-0.2-0.7,0.2-1.5,0.9-1.8l20.7-6.8
								c0.7-0.2,1.5,0.2,1.8,0.9l4.4,13.5c0.2,0.7-0.2,1.5-0.9,1.8L49.2,23.5z"/>
						</g>
					</g>
					
						<rect id="XMLID_3390_" x="40.1" y="13.2" transform="matrix(0.3146 0.9492 -0.9492 0.3146 47.3522 -36.0692)" class="st2" width="17" height="3.2"/>
				</g>
				<g id="XMLID_2772_">
					<g id="XMLID_3116_">
						<g id="XMLID_3117_">
							<path id="XMLID_12_" class="st0" d="M104.4,41.7c0.4,0.6,1.3,0.8,2,0.3l11.6-8.2c0.6-0.4,0.8-1.3,0.3-2l-12.6-17.8
								c-0.4-0.6-1.3-0.8-2-0.3l-11.6,8.2c-0.6,0.4-0.8,1.3-0.3,2L104.4,41.7z"/>
						</g>
					</g>
					
						<rect id="XMLID_2774_" x="101.5" y="33.4" transform="matrix(-0.8177 0.5757 -0.5757 -0.8177 220.099 0.2788)" class="st2" width="17" height="3.2"/>
				</g>
			</g>
			<path id="XMLID_2770_" class="st1" d="M104.9,12.8l-6.5-2.1c-0.9-0.3-2,0.2-2.4,1.1c-2.6,5.1-8.6,7.7-14.2,5.9
				c-5.7-1.9-9-7.7-7.9-13.4c0.2-0.8-0.3-1.6-1.1-1.9l-6.9-2.2c-0.7-0.2-1.4,0.1-1.6,0.8L49.6,45.5c-0.3,1.1,0.2,2.2,1.3,2.6
				l37.6,12.3c1.1,0.3,2.2-0.2,2.6-1.3l14.6-44.6C105.9,13.8,105.5,13.1,104.9,12.8z"/>
			<g id="XMLID_2680_">
				<g id="XMLID_2767_">
					<path id="XMLID_20_" class="st0" d="M92.2,37.2c0,0.1-0.2,0.3-0.4,0.3l-5.2,0.8c-0.7,0.1-1.4-0.1-1.9-0.6l-3.9-3.8
						c-0.1-0.1-0.2-0.3-0.1-0.5l2.5-7.7c0-0.1,0.2-0.2,0.4-0.2l11,3.6c0.1,0,0.2,0.2,0.2,0.4L92.2,37.2z"/>
				</g>
				
					<rect id="XMLID_2766_" x="81.5" y="30.2" transform="matrix(0.9503 0.3113 -0.3113 0.9503 14.2201 -25.7007)" class="st2" width="12.2" height="3"/>
			</g>
		</g>
	</g>
	<circle id="XMLID_65_" class="st3" cx="88" cy="102.1" r="3.6"/>
	<circle id="XMLID_2515_" class="st4" cx="110.5" cy="56.3" r="2.9"/>
	<circle id="XMLID_1971_" class="st3" cx="1.4" cy="105.1" r="1.4"/>
	<circle id="XMLID_1972_" class="st3" cx="66.6" cy="110.6" r="1.4"/>
	<circle id="XMLID_2783_" class="st0" cx="137.1" cy="50.9" r="1"/>
	<circle id="XMLID_2804_" class="st0" cx="28.8" cy="44.5" r="1"/>
	<circle id="XMLID_66_" class="st4" cx="124" cy="135.3" r="1"/>
	<circle id="XMLID_67_" class="st3" cx="40.6" cy="32.2" r="1.8"/>
	<circle id="XMLID_920_" class="st4" cx="3.4" cy="125" r="2.1"/>
	<circle id="XMLID_921_" class="st4" cx="133.1" cy="102.5" r="1.6"/>
	<circle id="XMLID_1430_" class="st5" cx="48" cy="62.7" r="1.6"/>
	<circle id="XMLID_1563_" class="st2" cx="63.4" cy="66.4" r="1.2"/>
</g>
</svg>
