<?xml version="1.0" encoding="utf-8"?>
<!-- Generator: Adobe Illustrator 19.0.0, SVG Export Plug-In . SVG Version: 6.00 Build 0)  -->
<svg version="1.1" id="Layer_1" xmlns="http://www.w3.org/2000/svg" xmlns:xlink="http://www.w3.org/1999/xlink" x="0px" y="0px"
	 width="236.6px" height="185px" viewBox="0 0 236.6 185" style="enable-background:new 0 0 236.6 185;" xml:space="preserve">
<style type="text/css">
	.st0{fill:#F4F4F4;}
	.st1{fill:#C4A3CC;}
	.st2{fill:#71467C;}
	.st3{fill:#906A99;}
	.st4{fill:#FFFFFF;}
	.st5{fill:#F3EFF4;}
</style>
<g id="XMLID_1_">
	<g id="XMLID_3861_">
		<g id="XMLID_3885_">
			<path id="XMLID_3892_" class="st0" d="M231.5,152.2H81.4c-2.8,0-5-2.2-5-5V18.1h160.1v129.1C236.6,150,234.3,152.2,231.5,152.2z"
				/>
			<g id="XMLID_3886_">
				<path id="XMLID_3891_" class="st1" d="M236.6,18.6H76.4v-13C76.4,2.5,78.9,0,82,0h149c3.1,0,5.6,2.5,5.6,5.6V18.6z"/>
				<g id="XMLID_3887_">
					<circle id="XMLID_3890_" class="st2" cx="88.6" cy="9.9" r="2.6"/>
					<circle id="XMLID_3889_" class="st3" cx="99.7" cy="9.9" r="2.6"/>
					<circle id="XMLID_3888_" class="st4" cx="110.8" cy="9.9" r="2.6"/>
				</g>
			</g>
		</g>
		<g id="XMLID_3862_">
			<g id="XMLID_3882_">
				<path id="XMLID_22_" class="st2" d="M209.1,52.9H103.9c-0.6,0-1-0.5-1-1V39.3c0-0.6,0.5-1,1-1h105.3c0.6,0,1,0.5,1,1v12.5
					C210.1,52.4,209.7,52.9,209.1,52.9z"/>
			</g>
			<g id="XMLID_3859_">
				<g id="XMLID_3871_">
					<g id="XMLID_3870_">
						<g id="XMLID_3879_">
							<path id="XMLID_3881_" class="st3" d="M125,87.6h-20.8c-0.5,0-0.9-0.4-0.9-0.9V63.6c0-0.5,0.4-0.9,0.9-0.9H125
								c0.5,0,0.9,0.4,0.9,0.9v23.1C125.9,87.2,125.5,87.6,125,87.6z"/>
							<path id="XMLID_3880_" class="st3" d="M125.3,96.2h-21.4c-0.4,0-0.6-0.3-0.6-0.6v-3.7c0-0.4,0.3-0.6,0.6-0.6h21.4
								c0.4,0,0.6,0.3,0.6,0.6v3.7C125.9,95.9,125.6,96.2,125.3,96.2z"/>
						</g>
					</g>
					<g id="XMLID_3872_">
						<g id="XMLID_3874_">
							<path id="XMLID_3876_" class="st3" d="M153,87.6h-20.8c-0.5,0-0.9-0.4-0.9-0.9V63.6c0-0.5,0.4-0.9,0.9-0.9H153
								c0.5,0,0.9,0.4,0.9,0.9v23.1C154,87.2,153.5,87.6,153,87.6z"/>
							<path id="XMLID_3875_" class="st3" d="M153.3,96.2h-21.4c-0.4,0-0.6-0.3-0.6-0.6v-3.7c0-0.4,0.3-0.6,0.6-0.6h21.4
								c0.4,0,0.6,0.3,0.6,0.6v3.7C154,95.9,153.7,96.2,153.3,96.2z"/>
						</g>
					</g>
					<g id="XMLID_3877_">
						<g id="XMLID_3883_">
							<path id="XMLID_3893_" class="st3" d="M181.1,87.6h-20.8c-0.5,0-0.9-0.4-0.9-0.9V63.6c0-0.5,0.4-0.9,0.9-0.9h20.8
								c0.5,0,0.9,0.4,0.9,0.9v23.1C182,87.2,181.6,87.6,181.1,87.6z"/>
							<path id="XMLID_3884_" class="st3" d="M181.4,96.2h-21.4c-0.4,0-0.6-0.3-0.6-0.6v-3.7c0-0.4,0.3-0.6,0.6-0.6h21.4
								c0.4,0,0.6,0.3,0.6,0.6v3.7C182,95.9,181.7,96.2,181.4,96.2z"/>
						</g>
					</g>
					<g id="XMLID_3894_">
						<g id="XMLID_3895_">
							<path id="XMLID_3897_" class="st3" d="M209.1,87.6h-20.8c-0.5,0-0.9-0.4-0.9-0.9V63.6c0-0.5,0.4-0.9,0.9-0.9h20.8
								c0.5,0,0.9,0.4,0.9,0.9v23.1C210.1,87.2,209.6,87.6,209.1,87.6z"/>
							<path id="XMLID_3896_" class="st3" d="M209.4,96.2H188c-0.4,0-0.6-0.3-0.6-0.6v-3.7c0-0.4,0.3-0.6,0.6-0.6h21.4
								c0.4,0,0.6,0.3,0.6,0.6v3.7C210.1,95.9,209.8,96.2,209.4,96.2z"/>
						</g>
					</g>
				</g>
			</g>
			<g id="XMLID_3864_">
				<g id="XMLID_3865_">
					<g id="XMLID_3907_">
						<g id="XMLID_3908_">
							<path id="XMLID_4271_" class="st3" d="M125,129.8h-20.8c-0.5,0-0.9-0.4-0.9-0.9v-23.1c0-0.5,0.4-0.9,0.9-0.9H125
								c0.5,0,0.9,0.4,0.9,0.9v23.1C125.9,129.4,125.5,129.8,125,129.8z"/>
							<path id="XMLID_4270_" class="st3" d="M125.3,138.3h-21.4c-0.4,0-0.6-0.3-0.6-0.6V134c0-0.4,0.3-0.6,0.6-0.6h21.4
								c0.4,0,0.6,0.3,0.6,0.6v3.7C125.9,138,125.6,138.3,125.3,138.3z"/>
						</g>
					</g>
					<g id="XMLID_3902_">
						<g id="XMLID_3903_">
							<path id="XMLID_3906_" class="st3" d="M153,129.8h-20.8c-0.5,0-0.9-0.4-0.9-0.9v-23.1c0-0.5,0.4-0.9,0.9-0.9H153
								c0.5,0,0.9,0.4,0.9,0.9v23.1C154,129.4,153.5,129.8,153,129.8z"/>
							<path id="XMLID_3905_" class="st3" d="M153.3,138.3h-21.4c-0.4,0-0.6-0.3-0.6-0.6V134c0-0.4,0.3-0.6,0.6-0.6h21.4
								c0.4,0,0.6,0.3,0.6,0.6v3.7C154,138,153.7,138.3,153.3,138.3z"/>
						</g>
					</g>
					<g id="XMLID_3898_">
						<g id="XMLID_3899_">
							<path id="XMLID_3901_" class="st3" d="M181.1,129.8h-20.8c-0.5,0-0.9-0.4-0.9-0.9v-23.1c0-0.5,0.4-0.9,0.9-0.9h20.8
								c0.5,0,0.9,0.4,0.9,0.9v23.1C182,129.4,181.6,129.8,181.1,129.8z"/>
							<path id="XMLID_3900_" class="st3" d="M181.4,138.3h-21.4c-0.4,0-0.6-0.3-0.6-0.6V134c0-0.4,0.3-0.6,0.6-0.6h21.4
								c0.4,0,0.6,0.3,0.6,0.6v3.7C182,138,181.7,138.3,181.4,138.3z"/>
						</g>
					</g>
				</g>
			</g>
		</g>
	</g>
	<g id="XMLID_3789_">
		<g id="XMLID_3816_">
			<g id="XMLID_3851_">
				<path id="XMLID_3818_" class="st0" d="M155.1,185H5c-2.8,0-5-2.2-5-5V50.9h160.1V180C160.1,182.8,157.9,185,155.1,185z"/>
				<g id="XMLID_3850_">
					<path id="XMLID_3822_" class="st1" d="M160.1,51.3H0v-13c0-3.1,2.5-5.6,5.6-5.6h149c3.1,0,5.6,2.5,5.6,5.6V51.3z"/>
					<g id="XMLID_3824_">
						<circle id="XMLID_3819_" class="st2" cx="12.1" cy="42.7" r="2.6"/>
						<circle id="XMLID_3825_" class="st3" cx="23.3" cy="42.7" r="2.6"/>
						<circle id="XMLID_3826_" class="st5" cx="34.4" cy="42.7" r="2.6"/>
					</g>
				</g>
			</g>
			<g id="XMLID_3791_">
				<g id="XMLID_3817_">
					<path id="XMLID_23_" class="st2" d="M50.2,158.6H22.1c-0.7,0-1.3-0.6-1.3-1.3V72.4c0-0.7,0.6-1.3,1.3-1.3h28.1
						c0.7,0,1.3,0.6,1.3,1.3v84.9C51.5,158,50.9,158.6,50.2,158.6z"/>
				</g>
				<g id="XMLID_3821_">
					<g id="XMLID_3787_">
						<path id="XMLID_3815_" class="st3" d="M82.1,96H61.3c-0.5,0-0.9-0.4-0.9-0.9V72c0-0.5,0.4-0.9,0.9-0.9h20.8
							c0.5,0,0.9,0.4,0.9,0.9v23.1C83,95.6,82.6,96,82.1,96z"/>
						<path id="XMLID_3807_" class="st3" d="M82.4,104.6H61c-0.4,0-0.6-0.3-0.6-0.6v-3.7c0-0.4,0.3-0.6,0.6-0.6h21.4
							c0.4,0,0.6,0.3,0.6,0.6v3.7C83,104.3,82.7,104.6,82.4,104.6z"/>
					</g>
					<g id="XMLID_3795_">
						<path id="XMLID_3814_" class="st3" d="M110.3,96H89.4c-0.5,0-0.9-0.4-0.9-0.9V72c0-0.5,0.4-0.9,0.9-0.9h20.8
							c0.5,0,0.9,0.4,0.9,0.9v23.1C111.2,95.6,110.8,96,110.3,96z"/>
						<path id="XMLID_3799_" class="st3" d="M110.6,104.6H89.1c-0.4,0-0.6-0.3-0.6-0.6v-3.7c0-0.4,0.3-0.6,0.6-0.6h21.4
							c0.4,0,0.6,0.3,0.6,0.6v3.7C111.2,104.3,110.9,104.6,110.6,104.6z"/>
					</g>
					<g id="XMLID_3798_">
						<path id="XMLID_3813_" class="st3" d="M138.4,96h-20.8c-0.5,0-0.9-0.4-0.9-0.9V72c0-0.5,0.4-0.9,0.9-0.9h20.8
							c0.5,0,0.9,0.4,0.9,0.9v23.1C139.4,95.6,139,96,138.4,96z"/>
						<path id="XMLID_3793_" class="st3" d="M138.7,104.6h-21.4c-0.4,0-0.6-0.3-0.6-0.6v-3.7c0-0.4,0.3-0.6,0.6-0.6h21.4
							c0.4,0,0.6,0.3,0.6,0.6v3.7C139.4,104.3,139.1,104.6,138.7,104.6z"/>
					</g>
				</g>
				<g id="XMLID_3823_">
					<g id="XMLID_3847_">
						<path id="XMLID_3849_" class="st3" d="M82.1,137.2H61.3c-0.5,0-0.9-0.4-0.9-0.9v-23.1c0-0.5,0.4-0.9,0.9-0.9h20.8
							c0.5,0,0.9,0.4,0.9,0.9v23.1C83,136.8,82.6,137.2,82.1,137.2z"/>
						<path id="XMLID_3848_" class="st3" d="M82.4,145.7H61c-0.4,0-0.6-0.3-0.6-0.6v-3.7c0-0.4,0.3-0.6,0.6-0.6h21.4
							c0.4,0,0.6,0.3,0.6,0.6v3.7C83,145.4,82.7,145.7,82.4,145.7z"/>
					</g>
					<g id="XMLID_3827_">
						<path id="XMLID_3846_" class="st3" d="M110.3,137.2H89.4c-0.5,0-0.9-0.4-0.9-0.9v-23.1c0-0.5,0.4-0.9,0.9-0.9h20.8
							c0.5,0,0.9,0.4,0.9,0.9v23.1C111.2,136.8,110.8,137.2,110.3,137.2z"/>
						<path id="XMLID_3845_" class="st3" d="M110.6,145.7H89.1c-0.4,0-0.6-0.3-0.6-0.6v-3.7c0-0.4,0.3-0.6,0.6-0.6h21.4
							c0.4,0,0.6,0.3,0.6,0.6v3.7C111.2,145.4,110.9,145.7,110.6,145.7z"/>
					</g>
				</g>
			</g>
		</g>
	</g>
</g>
</svg>
