<?xml version="1.0" encoding="utf-8"?>
<!-- Generator: Adobe Illustrator 19.0.0, SVG Export Plug-In . SVG Version: 6.00 Build 0)  -->
<svg version="1.1" id="Layer_1" xmlns="http://www.w3.org/2000/svg" xmlns:xlink="http://www.w3.org/1999/xlink" x="0px" y="0px"
	 width="185px" height="185px" viewBox="0 0 185 185" style="enable-background:new 0 0 185 185;" xml:space="preserve">
<style type="text/css">
	.st0{fill:#C4A3CC;}
	.st1{fill:#FFFFFF;}
	.st2{fill:#896193;}
	.st3{fill:#72497C;}
</style>
<g id="XMLID_3852_">
	<path id="XMLID_2282_" class="st0" d="M168.2,185H16.8C7.5,185,0,177.5,0,168.2V16.8C0,7.5,7.5,0,16.8,0h151.4
		c9.3,0,16.8,7.5,16.8,16.8v151.4C185,177.5,177.5,185,168.2,185z"/>
	<g id="XMLID_2621_">
		<g id="XMLID_2648_">
			<path id="XMLID_2628_" class="st1" d="M93.1,141.4h-1.3c-3.5,0-6.3-2.8-6.3-6.3V49.9c0-3.5,2.8-6.3,6.3-6.3h1.3
				c3.5,0,6.3,2.8,6.3,6.3v85.1C99.5,138.5,96.6,141.4,93.1,141.4z"/>
			<path id="XMLID_2644_" class="st2" d="M93.1,141.4h-1.3c-3.5,0-6.3-2.8-6.3-6.3v-75h13.9v75C99.5,138.5,96.6,141.4,93.1,141.4z"
				/>
			<path id="XMLID_2637_" class="st3" d="M101,86.3H84c-1.9,0-3.5-1.6-3.5-3.5V63.1c0-1.9,1.6-3.5,3.5-3.5H101
				c1.9,0,3.5,1.6,3.5,3.5v19.7C104.4,84.7,102.9,86.3,101,86.3z"/>
		</g>
		<g id="XMLID_2627_">
			<g id="XMLID_2649_">
				<path id="XMLID_2630_" class="st1" d="M130.4,141.4h-1.3c-3.5,0-6.3-2.8-6.3-6.3V49.9c0-3.5,2.8-6.3,6.3-6.3h1.3
					c3.5,0,6.3,2.8,6.3,6.3v85.1C136.7,138.5,133.9,141.4,130.4,141.4z"/>
				<path id="XMLID_2631_" class="st2" d="M130.4,141.4h-1.3c-3.5,0-6.3-2.8-6.3-6.3V93.8h13.9v41.3
					C136.7,138.5,133.9,141.4,130.4,141.4z"/>
				<path id="XMLID_2645_" class="st3" d="M138.3,113.4h-16.9c-1.9,0-3.5-1.6-3.5-3.5V90.2c0-1.9,1.6-3.5,3.5-3.5h16.9
					c1.9,0,3.5,1.6,3.5,3.5V110C141.7,111.9,140.2,113.4,138.3,113.4z"/>
			</g>
			<g id="XMLID_2629_">
				<path id="XMLID_2646_" class="st1" d="M55.8,141.4h-1.3c-3.5,0-6.3-2.8-6.3-6.3l0-85.1c0-3.5,2.8-6.3,6.3-6.3h1.3
					c3.5,0,6.3,2.8,6.3,6.3v85.1C62.2,138.5,59.3,141.4,55.8,141.4z"/>
				<path id="XMLID_2674_" class="st2" d="M55.8,141.4h-1.3c-3.5,0-6.3-2.8-6.3-6.3V98.3h13.9v36.8
					C62.2,138.5,59.3,141.4,55.8,141.4z"/>
				<path id="XMLID_2675_" class="st3" d="M63.7,103.5H46.7c-1.9,0-3.5-1.6-3.5-3.5V80.2c0-1.9,1.6-3.5,3.5-3.5h16.9
					c1.9,0,3.5,1.6,3.5,3.5V100C67.1,101.9,65.6,103.5,63.7,103.5z"/>
			</g>
		</g>
	</g>
</g>
</svg>
