<?xml version="1.0" encoding="utf-8"?>
<!-- Generator: Adobe Illustrator 19.0.0, SVG Export Plug-In . SVG Version: 6.00 Build 0)  -->
<svg version="1.1" id="Layer_1" xmlns="http://www.w3.org/2000/svg" xmlns:xlink="http://www.w3.org/1999/xlink" x="0px" y="0px"
	 width="960px" height="325px" viewBox="0 0 960 325" style="enable-background:new 0 0 960 325;" xml:space="preserve">
<style type="text/css">
	.st0{fill:#B4C64A;}
	.st1{fill:#5C7209;}
	.st2{fill:#8AA526;}
	.st3{fill:#30C1C1;}
	.st4{fill:#FFFFFF;}
	.st5{fill:#512D8B;}
	.st6{fill:#D22028;}
	.st7{fill:#C22261;}
	.st8{fill:#4D75A3;}
	.st9{fill:#40AAE0;}
	.st10{fill:#EFBF4A;}
	.st11{fill:#D4DD80;}
	.st12{fill:#1085C7;}
	.st13{fill:#71467C;}
	.st14{fill:#C4A3CC;}
	.st15{fill:#3E70B6;}
	.st16{fill:#DA6300;}
	.st17{fill:#698C09;}
	.st18{fill:#ED8C3B;}
	.st19{fill:#A46129;}
	.st20{fill:#FACE09;}
	.st21{fill:#D88000;}
	.st22{fill:#DB8B8C;}
	.st23{fill:#D35353;}
	.st24{fill:#B24040;}
	.st25{fill:#B73030;}
	.st26{fill:#3168AA;}
	.st27{opacity:0.5;}
	.st28{fill:#C5D8ED;}
	.st29{fill:#E7F7F7;}
	.st30{fill:#95E5E3;}
	.st31{fill:#906A99;}
	.st32{fill:#441E51;}
	.st33{fill:#EDA9A9;}
	.st34{fill:#772020;}
	.st35{fill:#CE4E4E;}
	.st36{fill:#653570;}
	.st37{fill:#F3EFF4;}
</style>
<g id="XMLID_3386_">
	<path id="XMLID_4454_" class="st0" d="M273.7,209.1c-3.1-10.6-18.2-25.5-30.3-22c-12.2,3.5-16.8,24.2-13.8,34.8L273.7,209.1z"/>
	<circle id="XMLID_4452_" class="st1" cx="240.6" cy="177.7" r="9.8"/>
	<path id="XMLID_4443_" class="st2" d="M279.2,226.7l-44.8,13.1c-3.7,1.1-7.6-1.1-8.7-4.8l-1.5-5.1c-1.1-3.7,1.1-7.6,4.8-8.7
		l44.8-13.1c3.7-1.1,7.6,1.1,8.7,4.8l1.5,5.1C285.1,221.7,282.9,225.6,279.2,226.7z"/>
	<g id="XMLID_3387_">
		<path id="XMLID_4440_" class="st1" d="M234.2,224.7c-1,0.3-1.5,1.3-1.3,2.3l1.7,5.8c0.3,1,1.3,1.5,2.3,1.3c1-0.3,1.5-1.3,1.3-2.3
			l-1.7-5.8C236.2,225,235.2,224.4,234.2,224.7z"/>
		<path id="XMLID_3844_" class="st1" d="M243.7,221.9c-1,0.3-1.5,1.3-1.3,2.3l1.7,5.8c0.3,1,1.3,1.5,2.3,1.3c1-0.3,1.5-1.3,1.3-2.3
			l-1.7-5.8C245.7,222.2,244.7,221.7,243.7,221.9z"/>
		<path id="XMLID_3843_" class="st1" d="M253.2,219.2c-1,0.3-1.5,1.3-1.3,2.3l1.7,5.8c0.3,1,1.3,1.5,2.3,1.3c1-0.3,1.5-1.3,1.3-2.3
			l-1.7-5.8C255.2,219.5,254.2,218.9,253.2,219.2z"/>
		<path id="XMLID_3448_" class="st1" d="M262.7,216.4c-1,0.3-1.5,1.3-1.3,2.3l1.7,5.8c0.3,1,1.3,1.5,2.3,1.3c1-0.3,1.5-1.3,1.3-2.3
			l-1.7-5.8C264.7,216.7,263.7,216.1,262.7,216.4z"/>
		<path id="XMLID_3447_" class="st1" d="M272.2,213.6c-1,0.3-1.5,1.3-1.3,2.3l1.7,5.8c0.3,1,1.3,1.5,2.3,1.3c1-0.3,1.5-1.3,1.3-2.3
			l-1.7-5.8C274.2,213.9,273.2,213.4,272.2,213.6z"/>
	</g>
</g>
<g id="XMLID_4456_">
	<g id="XMLID_4462_">
		<path id="XMLID_4465_" class="st3" d="M337.6,101.2l-6.8,12.6c-0.2,0.3-0.4,0.6-0.7,0.7l1.9,12.3c0.5,3.5,3.8,5.8,7.3,5.3l6-0.9
			c3.5-0.5,5.8-3.8,5.3-7.3l-2-12.4c-0.3-0.1-0.5-0.2-0.7-0.4L337.6,101.2z"/>
		<path id="XMLID_4464_" class="st3" d="M336.6,94.8c0.6-0.2,1.4-0.1,1.9,0.4l8.9,8.6l-1.4-8.7c-0.5-3.5-3.8-5.8-7.3-5.3l-6,0.9
			c-3.5,0.5-5.8,3.8-5.3,7.3l1.4,9l6-11.2C335.3,95.1,336,94.8,336.6,94.8z"/>
		<path id="XMLID_4463_" class="st4" d="M338.5,95.2c-0.5-0.5-1.2-0.6-1.9-0.4c-0.7,0-1.3,0.3-1.7,1l-6,11.2l1.2,7.6
			c0.3-0.2,0.5-0.4,0.7-0.7l6.8-12.6l10.3,9.9c0.2,0.2,0.5,0.3,0.7,0.4l-1.2-7.7L338.5,95.2z"/>
	</g>
	<g id="XMLID_4457_">
		<path id="XMLID_4460_" class="st3" d="M374.5,70.8L363.5,80c-0.3,0.2-0.6,0.4-0.9,0.4l-2.7,12.2c-0.8,3.4,1.4,6.8,4.8,7.6l5.9,1.3
			c3.4,0.8,6.8-1.4,7.6-4.8l2.8-12.2c-0.2-0.2-0.4-0.4-0.5-0.7L374.5,70.8z"/>
		<path id="XMLID_4459_" class="st3" d="M375.9,64.5c0.7,0,1.3,0.4,1.6,1.1l5.1,11.3l1.9-8.6c0.8-3.4-1.4-6.8-4.8-7.6l-5.9-1.3
			c-3.4-0.8-6.8,1.4-7.6,4.8l-2,8.9l9.7-8.2C374.5,64.3,375.3,64.2,375.9,64.5z"/>
		<path id="XMLID_4458_" class="st4" d="M377.5,65.5c-0.3-0.7-0.9-1-1.6-1.1c-0.6-0.3-1.4-0.2-1.9,0.3l-9.7,8.2l-1.7,7.5
			c0.3,0,0.7-0.2,0.9-0.4l10.9-9.2l5.9,13.1c0.1,0.3,0.3,0.5,0.5,0.7l1.7-7.7L377.5,65.5z"/>
	</g>
</g>
<circle id="XMLID_3332_" class="st5" cx="134.8" cy="233.5" r="6.5"/>
<circle id="XMLID_4468_" class="st6" cx="373.3" cy="167" r="3"/>
<circle id="XMLID_4469_" class="st7" cx="288.6" cy="106.7" r="4.3"/>
<circle id="XMLID_5093_" class="st8" cx="85.3" cy="198.3" r="1.9"/>
<circle id="XMLID_5094_" class="st0" cx="63.3" cy="49.3" r="1.9"/>
<circle id="XMLID_4466_" class="st9" cx="173.3" cy="197" r="3"/>
<circle id="XMLID_4470_" class="st10" cx="39.3" cy="155" r="3"/>
<circle id="XMLID_5029_" class="st11" cx="56.3" cy="189" r="1.5"/>
<circle id="XMLID_5030_" class="st12" cx="242.3" cy="77" r="1.5"/>
<circle id="XMLID_5031_" class="st5" cx="412.3" cy="101" r="1.5"/>
<circle id="XMLID_5032_" class="st11" cx="635.3" cy="222" r="1.5"/>
<circle id="XMLID_5033_" class="st11" cx="847.3" cy="70" r="1.5"/>
<circle id="XMLID_5034_" class="st11" cx="868.3" cy="236" r="1.5"/>
<circle id="XMLID_5035_" class="st11" cx="564.9" cy="61.6" r="2.1"/>
<circle id="XMLID_5036_" class="st11" cx="939.9" cy="116.6" r="2.1"/>
<circle id="XMLID_4480_" class="st0" cx="442.3" cy="84" r="4.1"/>
<circle id="XMLID_4481_" class="st13" cx="564.3" cy="236" r="4.1"/>
<circle id="XMLID_5095_" class="st14" cx="465.3" cy="146" r="4.1"/>
<circle id="XMLID_5096_" class="st2" cx="770.3" cy="47" r="4.1"/>
<circle id="XMLID_5019_" class="st13" cx="616.5" cy="47.8" r="5"/>
<circle id="XMLID_5027_" class="st3" cx="341.5" cy="267.8" r="4"/>
<circle id="XMLID_5098_" class="st3" cx="732.5" cy="166.8" r="4"/>
<circle id="XMLID_5099_" class="st15" cx="730.5" cy="302.8" r="3"/>
<circle id="XMLID_5100_" class="st15" cx="931.1" cy="194.5" r="3.7"/>
<circle id="XMLID_5173_" class="st10" cx="862.1" cy="113.5" r="2.4"/>
<circle id="XMLID_5097_" class="st16" cx="320.5" cy="226.8" r="2"/>
<circle id="XMLID_5028_" class="st6" cx="209.3" cy="61.7" r="5"/>
<circle id="XMLID_5011_" class="st17" cx="816.3" cy="97" r="2.6"/>
<circle id="XMLID_5004_" class="st11" cx="622.7" cy="194.6" r="2.8"/>
<g id="XMLID_4467_">
	<g id="XMLID_4485_">
		<path id="XMLID_4490_" class="st18" d="M501.2,134.9l-2-3.8c-0.4-0.8-0.9-0.7-1.1,0.2l-2.4,11.2c-0.1,0.4,0.1,0.7,0.4,0.8l3.5,0.7
			l0,0l3.5,0.7c0.3,0.1,0.6-0.2,0.7-0.5l2.4-11.2c0.2-0.9-0.2-1.2-0.9-0.7L502,135C501.7,135.3,501.4,135.2,501.2,134.9z"/>
		
			<rect id="XMLID_4482_" x="496.5" y="138.6" transform="matrix(0.9776 0.2106 -0.2106 0.9776 40.601 -102.2846)" class="st19" width="8.4" height="1.8"/>
	</g>
	<g id="XMLID_4483_">
		<path id="XMLID_4489_" class="st20" d="M516.6,193.8l-33.7-7.2c-1.6-0.3-2.7-2-2.3-3.6l9.1-42.3c0.3-1.6,2-2.7,3.6-2.3l33.7,7.2
			c1.6,0.3,2.7,2,2.3,3.6l-9.1,42.3C519.8,193.1,518.2,194.2,516.6,193.8z"/>
		<g id="XMLID_4484_">
			<path id="XMLID_4488_" class="st4" d="M513,173.6l-18.6-4c-1.6-0.3-2.7-2-2.3-3.6l2.2-10.4c0.3-1.6,2-2.7,3.6-2.3l18.6,4
				c1.6,0.3,2.7,2,2.3,3.6l-2.2,10.4C516.2,172.9,514.6,173.9,513,173.6z"/>
			<g id="XMLID_4496_">
				<path id="XMLID_4497_" class="st21" d="M514.5,161l-16.3-3.5c-0.9-0.2-1.7,0.4-1.9,1.2c-0.2,0.9,0.4,1.7,1.2,1.9l16.3,3.5
					c0.1,0,0.2,0,0.3,0c0.7,0,1.4-0.5,1.6-1.3C515.9,162,515.4,161.2,514.5,161z"/>
				<path id="XMLID_4498_" class="st21" d="M511.9,165.9l-13.3-2.8c-0.9-0.2-1.7,0.4-1.9,1.2c-0.2,0.9,0.4,1.7,1.2,1.9l13.3,2.8
					c0.1,0,0.2,0,0.3,0c0.7,0,1.4-0.5,1.6-1.3C513.3,166.9,512.7,166.1,511.9,165.9z"/>
			</g>
		</g>
	</g>
</g>
<g id="XMLID_4486_">
	<path id="XMLID_4998_" class="st22" d="M430.9,259.5L391,271.2l-6.7-22.9c-0.2-0.7,0.1-1.4,0.8-1.7l35.7-17.1
		c0.8-0.4,1.8,0.1,2,0.9L430.9,259.5z"/>
	<path id="XMLID_4997_" class="st23" d="M436.2,268L395.2,280c-0.8,0.2-1.7-0.2-2-1.1l-8.9-30.6c-0.2-0.8,0.2-1.7,1.1-2l40.9-11.9
		c0.8-0.2,1.7,0.2,2,1.1l8.9,30.6C437.5,266.9,437,267.8,436.2,268z"/>
	<path id="XMLID_4996_" class="st24" d="M418.5,254.9l14.3-4.2l2.3,8l-14.3,4.2c-0.8,0.2-1.7-0.2-2-1.1l-1.4-5
		C417.1,256.1,417.6,255.2,418.5,254.9z"/>
	<g id="XMLID_4993_">
		<path id="XMLID_4995_" class="st4" d="M416.6,248.4l15.6-4.5c0.8-0.2,1.7,0.2,2,1.1l2.9,9.9c0.2,0.8-0.2,1.7-1.1,2l-15.6,4.5
			c-0.8,0.2-1.7-0.2-2-1.1l-2.9-9.9C415.3,249.6,415.7,248.7,416.6,248.4z"/>
		<circle id="XMLID_4994_" class="st25" cx="429.5" cy="251.7" r="1.8"/>
	</g>
	<g id="XMLID_4487_">
		<path id="XMLID_4524_" class="st22" d="M390.1,251.8l1.9-0.6c0.4-0.1,0.7-0.7,0.6-1.1c-0.1-0.4-0.6-0.8-1.1-0.6l-1.9,0.6
			c-0.4,0.1-0.7,0.7-0.6,1.1C389.1,251.6,389.6,251.9,390.1,251.8z"/>
		<path id="XMLID_4526_" class="st22" d="M401,247.7c0.1,0.4,0.6,0.8,1.1,0.6l4.1-1.2c0.4-0.1,0.7-0.7,0.6-1.1
			c-0.1-0.4-0.6-0.8-1.1-0.6l-4.1,1.2C401.1,246.7,400.8,247.2,401,247.7z"/>
		<path id="XMLID_4527_" class="st22" d="M408.1,245.6c0.1,0.4,0.6,0.8,1.1,0.6l4.1-1.2c0.4-0.1,0.7-0.7,0.6-1.1s-0.6-0.8-1.1-0.6
			l-4.1,1.2C408.2,244.6,407.9,245.1,408.1,245.6z"/>
		<path id="XMLID_4528_" class="st22" d="M393.9,249.7c0.1,0.4,0.6,0.8,1.1,0.6l4.1-1.2c0.4-0.1,0.7-0.7,0.6-1.1
			c-0.1-0.4-0.6-0.8-1.1-0.6l-4.1,1.2C394,248.8,393.7,249.3,393.9,249.7z"/>
		<path id="XMLID_4531_" class="st22" d="M415.2,243.5c0.1,0.4,0.6,0.8,1.1,0.6l4.1-1.2c0.4-0.1,0.7-0.7,0.6-1.1
			c-0.1-0.4-0.6-0.8-1.1-0.6l-4.1,1.2C415.3,242.5,415,243.1,415.2,243.5z"/>
		<path id="XMLID_4532_" class="st22" d="M422.2,241.4c0.1,0.4,0.6,0.8,1.1,0.6l1.9-0.6c0.4-0.1,0.7-0.7,0.6-1.1s-0.6-0.8-1.1-0.6
			l-1.9,0.6C422.4,240.5,422.1,241,422.2,241.4z"/>
		<path id="XMLID_4984_" class="st22" d="M399.1,272.5c-0.1-0.4-0.6-0.8-1.1-0.6l-1.9,0.6c-0.4,0.1-0.7,0.7-0.6,1.1
			c0.1,0.4,0.6,0.8,1.1,0.6l1.9-0.6C399,273.5,399.2,273,399.1,272.5z"/>
		<path id="XMLID_4985_" class="st22" d="M427.5,264.3c-0.1-0.4-0.6-0.8-1.1-0.6l-4.1,1.2c-0.4,0.1-0.7,0.7-0.6,1.1
			c0.1,0.4,0.6,0.8,1.1,0.6l4.1-1.2C427.3,265.2,427.6,264.7,427.5,264.3z"/>
		<path id="XMLID_4986_" class="st22" d="M406.2,270.5c-0.1-0.4-0.6-0.8-1.1-0.6L401,271c-0.4,0.1-0.7,0.7-0.6,1.1s0.6,0.8,1.1,0.6
			l4.1-1.2C406.1,271.4,406.3,270.9,406.2,270.5z"/>
		<path id="XMLID_4987_" class="st22" d="M420.4,266.3c-0.1-0.4-0.6-0.8-1.1-0.6l-4.1,1.2c-0.4,0.1-0.7,0.7-0.6,1.1s0.6,0.8,1.1,0.6
			l4.1-1.2C420.2,267.3,420.5,266.8,420.4,266.3z"/>
		<path id="XMLID_4988_" class="st22" d="M413.3,268.4c-0.1-0.4-0.6-0.8-1.1-0.6l-4.1,1.2c-0.4,0.1-0.7,0.7-0.6,1.1
			c0.1,0.4,0.6,0.8,1.1,0.6l4.1-1.2C413.2,269.4,413.4,268.9,413.3,268.4z"/>
		<path id="XMLID_4989_" class="st22" d="M431.2,262.2l-1.9,0.6c-0.4,0.1-0.7,0.7-0.6,1.1c0.1,0.4,0.6,0.8,1.1,0.6l1.9-0.6
			c0.4-0.1,0.7-0.7,0.6-1.1C432.2,262.4,431.7,262.1,431.2,262.2z"/>
	</g>
</g>
<g id="XMLID_4491_">
	<g id="XMLID_4492_">
		<g id="XMLID_4502_">
			<polygon id="XMLID_4510_" class="st15" points="706.5,120 686.9,122.8 687.8,103.6 700.3,101.8 			"/>
			<path id="XMLID_4506_" class="st26" d="M710.5,124.3l-26.3,3.7c-1,0.1-2-0.6-2.1-1.6l-0.2-1.6c-0.1-1,0.6-2,1.6-2.1l26.3-3.7
				c1-0.1,2,0.6,2.1,1.6l0.2,1.6C712.2,123.2,711.5,124.1,710.5,124.3z"/>
			<polygon id="XMLID_4503_" class="st27" points="687.3,114.3 687.3,118.2 704.8,115.7 703.8,112 			"/>
		</g>
		<path id="XMLID_4499_" class="st26" d="M725.5,108.9l-60,8.4c-3.3,0.5-6.3-1.8-6.8-5.1l-5.4-38.4c-0.5-3.3,1.8-6.3,5.1-6.8l60-8.4
			c3.3-0.5,6.3,1.8,6.8,5.1l5.4,38.4C731.1,105.4,728.8,108.4,725.5,108.9z"/>
		<g id="XMLID_4495_">
			<path id="XMLID_20_" class="st28" d="M722.3,100l-56.2,7.9c-1.6,0.2-3.2-0.9-3.4-2.6l-4.2-30c-0.2-1.6,0.9-3.2,2.6-3.4l56.2-7.9
				c1.6-0.2,3.2,0.9,3.4,2.6l4.2,30C725.1,98.2,724,99.8,722.3,100z"/>
		</g>
		<circle id="XMLID_4494_" class="st4" cx="694.8" cy="108.2" r="1.5"/>
	</g>
</g>
<g id="XMLID_5017_">
	<path id="XMLID_5021_" class="st3" d="M677.9,237.4l-21.3-3c-1.5-0.2-2.6-1.6-2.4-3.1l6-42.6c0.2-1.5,1.6-2.6,3.1-2.4l21.3,3
		c1.5,0.2,2.6,1.6,2.4,3.1l-6,42.6C680.8,236.6,679.4,237.7,677.9,237.4z"/>
	
		<rect id="XMLID_5020_" x="658.9" y="193.1" transform="matrix(0.9903 0.1391 -0.1391 0.9903 35.7947 -91.2712)" class="st29" width="23.8" height="34.6"/>
	<path id="XMLID_5022_" class="st30" d="M675.3,190.4L672,190c-0.3,0-0.6,0.1-0.6,0.4c0,0.3,0.2,0.5,0.5,0.6l3.3,0.5
		c0.3,0,0.6-0.1,0.6-0.4C675.8,190.7,675.6,190.5,675.3,190.4z"/>
	<circle id="XMLID_5018_" class="st30" cx="667.8" cy="231.7" r="1.8"/>
</g>
<g id="XMLID_4525_">
	<g id="XMLID_4999_">
		<path id="XMLID_5015_" class="st31" d="M881.8,194.5c-4.6,1.3-9.9-2.7-13.2-7.4l-4.8,1.3c-0.4,5.7-2.8,11.8-7.5,13.1
			c-6.4,1.8-14.3-6.7-16.2-13.2c-1.8-6.4,2-13,8.3-14.8c0.2-0.1,0.5-0.1,0.7-0.2c0.1,0,0.1-0.1,0.2-0.1l23.7-6.6c0.1,0,0.2,0,0.2,0
			c0.2-0.1,0.4-0.1,0.7-0.2c6.4-1.8,13,2,14.8,8.3C890.6,181.4,888.2,192.7,881.8,194.5z"/>
		<path id="XMLID_3832_" class="st32" d="M872.3,151.3l-0.8-2.7c-0.2-0.5-0.4-1-0.8-1.3c-0.5-0.4-1.1-0.5-1.7-0.3
			c-1.1,0.3-1.7,1.4-1.3,2.7l0.7,2.7c0,0.1-0.1,0.2-0.2,0.2l-9,2.5c-2.4,0.7-3.8,3.1-3.1,5.6l1.2,4.4l-3.3,0.9
			c-0.6,0.2-1.1,0.6-1.4,1.3c-0.2,0.5-0.3,1.2-0.1,1.7c0.1,0.5,0.5,1,1,1.4c0.4,0.3,0.9,0.5,1.3,0.5c0.2,0,0.3,0,0.5-0.1l10.4-2.9
			c0.6-0.2,1.1-0.6,1.4-1.3c0.2-0.5,0.3-1.2,0.1-1.7c-0.3-1.1-1.6-2.2-2.8-1.8l-3.3,0.9l-1.2-4.4c0,0,0.1-0.1,0.1-0.2l9-2.5
			c1.2-0.3,2.1-1.1,2.7-2.2C872.5,153.7,872.7,152.5,872.3,151.3z"/>
	</g>
	<g id="XMLID_4547_">
		<path id="XMLID_4548_" class="st32" d="M883.8,176.8c-0.4-1.3-1.7-2.1-3.1-1.7h0c-1.3,0.4-2.1,1.7-1.7,3.1
			c0.3,1.1,1.3,1.8,2.4,1.8c0.2,0,0.4,0,0.7-0.1C883.4,179.5,884.2,178.1,883.8,176.8z"/>
		<path id="XMLID_4549_" class="st32" d="M874.4,177.6c-0.6-0.3-1.3-0.4-1.9-0.2h0c-1.3,0.4-2.1,1.7-1.7,3.1
			c0.3,1.1,1.3,1.8,2.4,1.8c0.2,0,0.4,0,0.7-0.1c1.3-0.4,2.1-1.7,1.7-3.1C875.4,178.5,875,177.9,874.4,177.6z"/>
		<path id="XMLID_4550_" class="st32" d="M856.4,181.9l-2.3,0.6l-0.7-2.5c-0.1-0.5-0.5-1-0.9-1.2c-0.5-0.3-1-0.4-1.6-0.2
			c-1.1,0.3-1.7,1.4-1.4,2.5l0.7,2.5l-2.5,0.7c-1.1,0.3-1.7,1.4-1.4,2.5c0.1,0.5,0.5,1,1,1.2c0.5,0.2,1,0.3,1.5,0.1l2.5-0.7l0.7,2.4
			c0.1,0.5,0.5,1,0.9,1.2c0.3,0.2,0.7,0.3,1,0.3c0.2,0,0.4,0,0.5-0.1c1.1-0.3,1.7-1.4,1.4-2.5l-0.7-2.4l2.3-0.6
			c1.1-0.3,1.7-1.4,1.4-2.5C858.6,182.2,857.5,181.6,856.4,181.9z"/>
		<path id="XMLID_4551_" class="st32" d="M876.2,177c0.2,0,0.4,0,0.7-0.1c1.3-0.4,2.1-1.7,1.7-3.1c-0.4-1.3-1.7-2.1-3.1-1.7l0,0
			c-0.6,0.2-1.2,0.6-1.5,1.2c-0.3,0.6-0.4,1.3-0.2,1.9C874.1,176.3,875.1,177,876.2,177z"/>
		<path id="XMLID_4552_" class="st32" d="M877.8,180.3L877.8,180.3c-1.3,0.4-2.1,1.7-1.7,3.1c0.3,1.1,1.3,1.8,2.4,1.8
			c0.2,0,0.4,0,0.7-0.1c1.3-0.4,2.1-1.7,1.7-3.1C880.5,180.7,879.1,179.9,877.8,180.3z"/>
	</g>
</g>
<g id="XMLID_4507_">
	<path id="XMLID_4518_" class="st18" d="M805.8,241.4L759,254c-0.2,0-0.3-0.1-0.2-0.3l4.7-7.5c0.3-0.5,0.8-0.8,1.3-1l31.5-8.5
		c0.6-0.2,1.2-0.1,1.6,0.2l7.8,4.1C806,241.1,805.9,241.3,805.8,241.4z"/>
	<path id="XMLID_5025_" class="st20" d="M758.7,254.5l6,22.3c0.2,0.8,1.1,1.3,1.9,1.1l15.4-4.2l0.7-4.2c0.1-2.5,1.9-4.6,4.3-5.3
		s5,0.3,6.4,2.4l2.7,3.3l15.1-4.1c0.8-0.2,1.3-1.1,1.1-1.9l-6-22.3c-0.2-0.8-1.1-1.3-1.9-1.1l-44.6,12.1
		C759,252.8,758.5,253.7,758.7,254.5z M775.4,264.4c-2.3,0.6-4.6-0.7-5.3-3c-0.6-2.3,0.7-4.6,3-5.3c2.3-0.6,4.6,0.7,5.3,3
		C779,261.4,777.7,263.8,775.4,264.4z M797.2,258.5c-2.3,0.6-4.6-0.7-5.3-3c-0.6-2.3,0.7-4.6,3-5.3c2.3-0.6,4.6,0.7,5.3,3
		C800.8,255.5,799.5,257.9,797.2,258.5z"/>
</g>
<g id="XMLID_4508_">
	<path id="XMLID_5003_" class="st33" d="M903.7,89.2l-10.9-4.3c-1.4-0.6-2.2-2.2-1.6-3.7l4.7-11.8c0.6-1.4,2.2-2.2,3.7-1.6l10.9,4.3
		c1.4,0.6,2.2,2.2,1.6,3.7l-4.7,11.8C906.8,89.1,905.2,89.8,903.7,89.2z"/>
	<circle id="XMLID_5002_" class="st34" cx="901.7" cy="78.5" r="3.4"/>
	<path id="XMLID_2_" class="st35" d="M912.4,57.9l-4.3-1.7c-1.4-0.6-3.1,0.1-3.7,1.6l-3.7,9.2l9.6,3.8l3.7-9.2
		C914.6,60.2,913.9,58.5,912.4,57.9z"/>
	<path id="XMLID_3_" class="st35" d="M893,86.4l-3.7,9.2c-0.6,1.4,0.1,3.1,1.6,3.7l4.3,1.7c1.4,0.6,3.1-0.1,3.7-1.6l3.7-9.2
		L893,86.4z"/>
	<path id="XMLID_4511_" class="st34" d="M891.7,74.5L891.7,74.5c-0.8-0.3-1.2-1.2-0.9-2l0.6-1.6c0.3-0.8,1.2-1.2,2-0.9l0,0
		c0.8,0.3,1.2,1.2,0.9,2l-0.6,1.6C893.4,74.5,892.5,74.8,891.7,74.5z"/>
</g>
<g id="XMLID_4523_">
	<path id="XMLID_5176_" class="st31" d="M195.6,267.2l-11.3,3c-1.1,0.3-2.1-0.3-2.4-1.4l-3.2-11.8c-0.3-1.1,0.3-2.1,1.4-2.4l11.3-3
		c1.1-0.3,2.1,0.3,2.4,1.4l3.2,11.8C197.3,265.8,196.7,266.9,195.6,267.2z"/>
	<g id="XMLID_5174_">
		<path id="XMLID_5175_" class="st4" d="M188.6,265c-0.3,0.6-1.1,0.7-1.6,0.4l-3.4-2.3c-0.8-0.5-1-1.6-0.4-2.4
			c0.5-0.8,1.6-1,2.4-0.4l1.4,0.9l2.4-4.2c0.5-0.8,1.5-1.1,2.3-0.6c0.8,0.5,1.1,1.5,0.6,2.3L188.6,265z"/>
	</g>
</g>
<g id="XMLID_2768_">
	<path id="XMLID_3384_" class="st31" d="M215.2,125.6l-11-3.9c-1-0.4-1.6-1.5-1.2-2.5l4.1-11.6c0.4-1,1.5-1.6,2.5-1.2l11,3.9
		c1,0.4,1.6,1.5,1.2,2.5l-4.1,11.6C217.3,125.4,216.2,126,215.2,125.6z"/>
	<g id="XMLID_2769_">
		<path id="XMLID_3382_" class="st4" d="M210.6,119.8c-0.6,0.3-1.3,0-1.6-0.6l-1.5-3.8c-0.3-0.9,0.1-1.9,1-2.2
			c0.9-0.3,1.9,0.1,2.2,1l0.6,1.5l4.4-2.1c0.8-0.4,1.9,0,2.3,0.8c0.4,0.8,0.1,1.9-0.8,2.3L210.6,119.8z"/>
	</g>
</g>
<g id="XMLID_5178_">
	<path id="XMLID_5181_" class="st31" d="M496.3,58.5l-11.5-2c-1.1-0.2-1.8-1.2-1.6-2.3l2.1-12.1c0.2-1.1,1.2-1.8,2.3-1.6l11.5,2
		c1.1,0.2,1.8,1.2,1.6,2.3l-2.1,12.1C498.4,57.9,497.3,58.7,496.3,58.5z"/>
	<g id="XMLID_5179_">
		<path id="XMLID_5180_" class="st4" d="M490.8,53.5c-0.5,0.4-1.3,0.2-1.6-0.3l-2.1-3.5c-0.5-0.8-0.2-1.9,0.6-2.3
			c0.8-0.5,1.9-0.2,2.3,0.6l0.8,1.4l4-2.8c0.8-0.5,1.8-0.4,2.4,0.4c0.5,0.8,0.4,1.8-0.4,2.4L490.8,53.5z"/>
	</g>
</g>
<g id="XMLID_3446_">
	<path id="XMLID_3834_" class="st31" d="M36.8,201.1l-11.4,2.6c-1.1,0.2-2.1-0.4-2.4-1.5l-2.7-12c-0.2-1.1,0.4-2.1,1.5-2.4l11.4-2.6
		c1.1-0.2,2.1,0.4,2.4,1.5l2.7,12C38.5,199.8,37.8,200.8,36.8,201.1z"/>
	<g id="XMLID_3449_">
		<path id="XMLID_3450_" class="st4" d="M29.8,198.6c-0.4,0.6-1.1,0.7-1.6,0.3l-3.3-2.4c-0.8-0.6-0.9-1.6-0.4-2.4
			c0.6-0.8,1.6-0.9,2.4-0.4l1.3,1l2.6-4.1c0.5-0.8,1.6-1,2.3-0.5c0.8,0.5,1,1.5,0.5,2.3L29.8,198.6z"/>
	</g>
</g>
<g id="XMLID_4442_">
	<path id="XMLID_4446_" class="st31" d="M615.7,128l-11-4c-1-0.4-1.5-1.5-1.2-2.5l4.2-11.5c0.4-1,1.5-1.5,2.5-1.2l11,4
		c1,0.4,1.5,1.5,1.2,2.5l-4.2,11.5C617.9,127.8,616.7,128.3,615.7,128z"/>
	<g id="XMLID_4444_">
		<path id="XMLID_4445_" class="st4" d="M611.2,122.1c-0.6,0.3-1.3,0-1.5-0.6l-1.4-3.8c-0.3-0.9,0.1-1.9,1-2.2
			c0.9-0.3,1.9,0.1,2.2,1l0.6,1.5l4.4-2.1c0.9-0.4,1.9,0,2.3,0.8c0.4,0.9,0,1.9-0.8,2.3L611.2,122.1z"/>
	</g>
</g>
<g id="XMLID_5182_">
	<path id="XMLID_5185_" class="st31" d="M784.5,209.2l-11.5-2.2c-1.1-0.2-1.8-1.2-1.6-2.3l2.3-12.1c0.2-1.1,1.2-1.8,2.3-1.6
		l11.5,2.2c1.1,0.2,1.8,1.2,1.6,2.3l-2.3,12.1C786.6,208.7,785.5,209.4,784.5,209.2z"/>
	<g id="XMLID_5183_">
		<path id="XMLID_5184_" class="st4" d="M779.1,204.2c-0.5,0.4-1.3,0.2-1.6-0.4l-2-3.6c-0.5-0.8-0.2-1.9,0.6-2.3
			c0.8-0.5,1.9-0.2,2.3,0.6l0.8,1.4l4-2.8c0.8-0.5,1.8-0.3,2.4,0.4c0.5,0.8,0.3,1.8-0.4,2.4L779.1,204.2z"/>
	</g>
</g>
<g id="XMLID_5186_">
	<path id="XMLID_5189_" class="st31" d="M608.9,277.5l-11.2,3.5c-1,0.3-2.1-0.3-2.5-1.3l-3.6-11.7c-0.3-1,0.3-2.1,1.3-2.5l11.2-3.5
		c1-0.3,2.1,0.3,2.5,1.3l3.6,11.7C610.5,276.1,609.9,277.2,608.9,277.5z"/>
	<g id="XMLID_5187_">
		<path id="XMLID_5188_" class="st4" d="M601.7,275.6c-0.3,0.6-1,0.8-1.6,0.4l-3.5-2.2c-0.8-0.5-1-1.6-0.5-2.3
			c0.5-0.8,1.6-1,2.3-0.5l1.4,0.9l2.3-4.3c0.4-0.8,1.5-1.2,2.3-0.7c0.8,0.4,1.2,1.5,0.7,2.3L601.7,275.6z"/>
	</g>
</g>
<g id="XMLID_4447_">
	<g id="XMLID_3339_">
		<g id="XMLID_4493_">
			<g id="XMLID_4514_">
				<g id="XMLID_4515_">
					<path id="XMLID_16_" class="st14" d="M81.3,115.7c-0.7,0.2-1.5-0.2-1.8-0.9l-5.9-18c-0.2-0.7,0.2-1.5,0.9-1.8l27.3-9
						c0.7-0.2,1.5,0.2,1.8,0.9l5.9,18c0.2,0.7-0.2,1.5-0.9,1.8L81.3,115.7z"/>
				</g>
			</g>
			
				<rect id="XMLID_4509_" x="70.1" y="102.3" transform="matrix(0.3146 0.9492 -0.9492 0.3146 154.5666 -5.3861)" class="st36" width="21.8" height="4.1"/>
		</g>
		<g id="XMLID_3451_">
			<g id="XMLID_3831_">
				<g id="XMLID_4441_">
					<path id="XMLID_12_" class="st14" d="M152.5,139.2c0.4,0.6,1.3,0.8,2,0.3l15.5-10.9c0.6-0.4,0.8-1.3,0.3-2l-16.6-23.5
						c-0.4-0.6-1.3-0.8-2-0.3l-15.5,10.9c-0.6,0.4-0.8,1.3-0.3,2L152.5,139.2z"/>
				</g>
			</g>
			
				<rect id="XMLID_3828_" x="148.6" y="128.2" transform="matrix(-0.8177 0.5757 -0.5757 -0.8177 364.836 144.8864)" class="st36" width="21.8" height="4.1"/>
		</g>
	</g>
	<path id="XMLID_3838_" class="st37" d="M152.9,101.9l-8.4-2.7c-1.2-0.4-2.6,0.2-3.1,1.4c-3.3,6.5-11,9.9-18.1,7.5
		c-7.3-2.4-11.5-9.8-10.1-17.2c0.2-1-0.4-2.1-1.4-2.4l-8.8-2.9c-0.9-0.3-1.8,0.2-2,1l-18.7,57.1c-0.4,1.4,0.3,2.8,1.7,3.3l48,15.7
		c1.4,0.4,2.8-0.3,3.3-1.7l18.7-57.1C154.2,103.1,153.7,102.2,152.9,101.9z"/>
	<g id="XMLID_3452_">
		<g id="XMLID_3809_">
			<path id="XMLID_13_" class="st14" d="M136.7,133.1c0,0.1-0.2,0.3-0.4,0.3l-6.8,1c-0.9,0.1-1.9-0.2-2.5-0.8l-5.1-4.9
				c-0.1-0.1-0.2-0.3-0.1-0.5l3.3-10c0-0.1,0.2-0.2,0.4-0.2l14.3,4.7c0.1,0,0.2,0.2,0.2,0.4L136.7,133.1z"/>
		</g>
		
			<rect id="XMLID_3804_" x="123.1" y="124.1" transform="matrix(0.9503 0.3113 -0.3113 0.9503 45.721 -34.4715)" class="st36" width="15.6" height="3.9"/>
	</g>
</g>
</svg>
